<svg width="46" height="37" viewBox="0 0 46 37" fill="none" xmlns="http://www.w3.org/2000/svg">
<path d="M35.2155 18.3761C35.9774 15.4805 35.5249 13.0127 33.941 11.4288L29.6983 7.18615C28.1144 5.60223 25.6466 5.14968 22.751 5.91159C20.0454 6.62312 17.2356 8.3352 14.8491 10.7217C12.4626 13.1082 10.7505 15.918 10.039 18.6236C9.27709 21.5192 9.72964 23.987 11.3136 25.5709L15.5562 29.8136C17.1401 31.3975 19.6079 31.85 22.5035 31.0881C25.2091 30.3766 28.019 28.6645 30.4054 26.278C32.7919 23.8915 34.504 21.0817 35.2155 18.3761ZM29.6798 24.1382L26.8513 21.3097C28.2471 19.8035 29.3908 18.0819 30.2384 16.2115L32.9422 18.9153C32.3005 20.6389 31.1886 22.465 29.6798 24.1382ZM33.5158 16.6605L30.9764 14.1211C31.1934 13.3134 31.3122 12.4824 31.33 11.6462L32.5268 12.843C33.4106 13.7269 33.7112 15.0881 33.5158 16.6605ZM16.2633 12.1359C20.4794 7.91977 25.986 6.30227 28.2841 8.60036C30.5822 10.8985 28.9647 16.4051 24.7486 20.6212C20.5325 24.8373 15.0259 26.4548 12.7278 24.1567C10.4297 21.8586 12.0472 16.352 16.2633 12.1359ZM16.9704 28.3994L15.7763 27.2052C16.6125 27.1874 17.4434 27.0687 18.2512 26.8517L20.7906 29.3911C19.2155 29.5838 17.8543 29.2832 16.9704 28.3994ZM23.0427 28.8148L20.3398 26.1119C22.2102 25.2643 23.9318 24.1206 25.438 22.7248L28.2664 25.5532C26.5924 27.0612 24.7663 28.1731 23.0427 28.8148Z" fill="#FF841D"/>
</svg>
