<svg width="44" height="44" viewBox="0 0 44 44" fill="none" xmlns="http://www.w3.org/2000/svg">
<path d="M39.689 36.4375C37.0714 31.9121 33.0375 28.6671 28.3298 27.1288C30.6584 25.7425 32.4676 23.6302 33.4796 21.1162C34.4915 18.6023 34.6502 15.8256 33.9313 13.2127C33.2125 10.5998 31.6557 8.29506 29.5003 6.6525C27.3448 5.00995 24.7097 4.12036 21.9997 4.12036C19.2897 4.12036 16.6546 5.00995 14.4991 6.6525C12.3436 8.29506 10.7869 10.5998 10.068 13.2127C9.34913 15.8256 9.50784 18.6023 10.5198 21.1162C11.5317 23.6302 13.3409 25.7425 15.6695 27.1288C10.9619 28.6653 6.92795 31.9104 4.3103 36.4375C4.2143 36.5941 4.15063 36.7682 4.12304 36.9498C4.09544 37.1313 4.10449 37.3165 4.14964 37.4945C4.19478 37.6725 4.27512 37.8396 4.38591 37.986C4.49669 38.1324 4.63569 38.2552 4.79468 38.347C4.95368 38.4389 5.12946 38.4979 5.31165 38.5207C5.49385 38.5435 5.67876 38.5296 5.85549 38.4798C6.03222 38.43 6.19718 38.3453 6.34063 38.2307C6.48409 38.1161 6.60314 37.9739 6.69077 37.8125C9.92889 32.2163 15.6523 28.875 21.9997 28.875C28.347 28.875 34.0705 32.2163 37.3086 37.8125C37.3962 37.9739 37.5153 38.1161 37.6587 38.2307C37.8022 38.3453 37.9671 38.43 38.1439 38.4798C38.3206 38.5296 38.5055 38.5435 38.6877 38.5207C38.8699 38.4979 39.0457 38.4389 39.2047 38.347C39.3637 38.2552 39.5026 38.1324 39.6134 37.986C39.7242 37.8396 39.8046 37.6725 39.8497 37.4945C39.8949 37.3165 39.9039 37.1313 39.8763 36.9498C39.8487 36.7682 39.785 36.5941 39.689 36.4375ZM12.3747 16.5C12.3747 14.5964 12.9392 12.7355 13.9968 11.1527C15.0544 9.56985 16.5576 8.33619 18.3163 7.6077C20.0751 6.8792 22.0104 6.6886 23.8774 7.05998C25.7445 7.43136 27.4595 8.34805 28.8056 9.69413C30.1517 11.0402 31.0683 12.7552 31.4397 14.6223C31.8111 16.4894 31.6205 18.4246 30.892 20.1834C30.1635 21.9421 28.9299 23.4453 27.347 24.5029C25.7642 25.5605 23.9033 26.125 21.9997 26.125C19.4478 26.1223 17.0012 25.1074 15.1968 23.3029C13.3923 21.4985 12.3774 19.0519 12.3747 16.5Z" fill="#3572FF"/>
</svg>
