<svg width="117" height="60" viewBox="0 0 117 60" fill="none" xmlns="http://www.w3.org/2000/svg">
<path d="M26.9872 23.7338L26.9872 32.6864L22.1392 32.6864L22.1392 28L5.59136 28L5.59136 32.6864L0.74336 32.6864L0.77568 23.7338L3.49056 23.7338L3.49056 15.2659C3.49056 13.0897 3.92149 11.2367 4.78336 9.70688C5.64523 8.15552 6.85184 6.98123 8.4032 6.184C9.97611 5.38677 11.7968 4.98816 13.8653 4.98816C15.9338 4.98816 17.7437 5.38677 19.295 6.184C20.8679 6.98123 22.0853 8.15552 22.9472 9.70688C23.8091 11.2367 24.24 13.0897 24.24 15.2659L24.24 23.7338L26.9872 23.7338ZM18.9718 23.7338L18.9718 14.8134C18.9718 13.0466 18.5194 11.7107 17.6144 10.8058C16.731 9.9008 15.4813 9.44832 13.8653 9.44832C12.2708 9.44832 11.0103 9.9008 10.0838 10.8058C9.17888 11.7107 8.7264 13.0466 8.7264 14.8134L8.7264 23.7338L18.9718 23.7338ZM38.1858 28.2586C36.3544 28.2586 34.706 27.8815 33.2409 27.1274C31.7972 26.3517 30.666 25.2851 29.8473 23.9277C29.0285 22.5702 28.6191 21.0297 28.6191 19.3059C28.6191 17.5822 29.0285 16.0416 29.8473 14.6842C30.666 13.3267 31.7972 12.2709 33.2409 11.5168C34.706 10.7411 36.3544 10.3533 38.1858 10.3533C40.0173 10.3533 41.6548 10.7411 43.0985 11.5168C44.5421 12.2709 45.6733 13.3267 46.4921 14.6842C47.3108 16.0416 47.7202 17.5822 47.7202 19.3059C47.7202 21.0297 47.3108 22.5702 46.4921 23.9277C45.6733 25.2851 44.5421 26.3517 43.0985 27.1274C41.6548 27.8815 40.0173 28.2586 38.1858 28.2586ZM38.1858 24.1216C39.4786 24.1216 40.5344 23.6907 41.3532 22.8288C42.1935 21.9454 42.6137 20.7711 42.6137 19.3059C42.6137 17.8407 42.1935 16.6772 41.3532 15.8154C40.5344 14.9319 39.4786 14.4902 38.1858 14.4902C36.893 14.4902 35.8265 14.9319 34.9861 15.8154C34.1458 16.6772 33.7257 17.8407 33.7257 19.3059C33.7257 20.7711 34.1458 21.9454 34.9861 22.8288C35.8265 23.6907 36.893 24.1216 38.1858 24.1216ZM58.8479 21.4067L56.23 21.4067L56.23 28L51.1881 28L51.1881 10.6118L56.23 10.6118L56.23 17.3667L58.9449 17.3667L63.6636 10.6118L69.0287 10.6118L62.9525 18.9504L69.4489 28L63.502 28L58.8479 21.4067ZM88.7709 10.6118L88.7709 28L83.9552 28L83.9552 25.9638C83.3088 26.718 82.5116 27.289 81.5636 27.6768C80.6371 28.0646 79.6459 28.2586 78.5901 28.2586C76.3062 28.2586 74.4855 27.6014 73.128 26.287C71.7921 24.9727 71.1242 23.0227 71.1242 20.4371L71.1242 10.6118L76.1661 10.6118L76.1661 19.6938C76.1661 22.4948 77.3404 23.8954 79.689 23.8954C80.9172 23.8954 81.8975 23.5075 82.6301 22.7318C83.3627 21.9346 83.729 20.7603 83.729 19.209L83.729 10.6118L88.7709 10.6118Z" fill="#35BCFF"/>
<path d="M51.289 50.3317L51.289 59.2843L46.441 59.2843L46.441 54.5979L29.8931 54.5979L29.8931 59.2843L25.0451 59.2843L25.0774 50.3317L27.7923 50.3317L27.7923 41.8638C27.7923 39.6876 28.2233 37.8346 29.0851 36.3048C29.947 34.7534 31.1536 33.5791 32.705 32.7819C34.2779 31.9847 36.0986 31.5861 38.167 31.5861C40.2355 31.5861 42.0454 31.9847 43.5968 32.7819C45.1697 33.5791 46.3871 34.7534 47.249 36.3048C48.1108 37.8346 48.5418 39.6876 48.5418 41.8638L48.5418 50.3317L51.289 50.3317ZM43.2736 50.3317L43.2736 41.4113C43.2736 39.6445 42.8211 38.3086 41.9162 37.4037C41.0327 36.4987 39.783 36.0462 38.167 36.0462C36.5726 36.0462 35.3121 36.4987 34.3856 37.4037C33.4806 38.3086 33.0282 39.6445 33.0282 41.4113L33.0282 50.3317L43.2736 50.3317ZM62.4876 54.8565C60.6561 54.8565 59.0078 54.4794 57.5426 53.7253C56.099 52.9496 54.9678 51.883 54.149 50.5256C53.3303 49.1681 52.9209 47.6276 52.9209 45.9038C52.9209 44.1801 53.3303 42.6395 54.149 41.2821C54.9678 39.9246 56.099 38.8688 57.5426 38.1147C59.0078 37.339 60.6561 36.9512 62.4876 36.9512C64.3191 36.9512 65.9566 37.339 67.4002 38.1147C68.8439 38.8688 69.9751 39.9246 70.7938 41.2821C71.6126 42.6395 72.022 44.1801 72.022 45.9038C72.022 47.6276 71.6126 49.1681 70.7938 50.5256C69.9751 51.883 68.8439 52.9496 67.4002 53.7253C65.9566 54.4794 64.3191 54.8565 62.4876 54.8565ZM62.4876 50.7195C63.7804 50.7195 64.8362 50.2886 65.6549 49.4267C66.4953 48.5433 66.9154 47.369 66.9154 45.9038C66.9154 44.4386 66.4953 43.2751 65.6549 42.4133C64.8362 41.5298 63.7804 41.0881 62.4876 41.0881C61.1948 41.0881 60.1282 41.5298 59.2879 42.4133C58.4476 43.2751 58.0274 44.4386 58.0274 45.9038C58.0274 47.369 58.4476 48.5433 59.2879 49.4267C60.1282 50.2886 61.1948 50.7195 62.4876 50.7195ZM83.1497 48.0046L80.5317 48.0046L80.5317 54.5979L75.4898 54.5979L75.4898 37.2097L80.5317 37.2097L80.5317 43.9646L83.2466 43.9646L87.9653 37.2097L93.3305 37.2097L87.2543 45.5483L93.7506 54.5979L87.8037 54.5979L83.1497 48.0046ZM113.073 37.2097L113.073 54.5979L108.257 54.5979L108.257 52.5617C107.611 53.3159 106.813 53.8869 105.865 54.2747C104.939 54.6625 103.948 54.8565 102.892 54.8565C100.608 54.8565 98.7872 54.1993 97.4298 52.8849C96.0939 51.5706 95.426 49.6206 95.426 47.035L95.426 37.2097L100.468 37.2097L100.468 46.2917C100.468 49.0927 101.642 50.4933 103.991 50.4933C105.219 50.4933 106.199 50.1054 106.932 49.3297C107.664 48.5325 108.031 47.3582 108.031 45.8069L108.031 37.2097L113.073 37.2097Z" fill="#3572FF"/>
</svg>
